<mxfile host="Electron" agent="Mozilla/5.0 (X11; Linux x86_64) AppleWebKit/537.36 (KHTML, like Gecko) draw.io/27.0.2 Chrome/134.0.6998.205 Electron/35.3.0 Safari/537.36" version="27.0.2">
  <diagram name="Page-1" id="32Vy3Me06aRy9Lsva1js">
    <mxGraphModel dx="2870" dy="1203" grid="1" gridSize="10" guides="1" tooltips="1" connect="1" arrows="1" fold="1" page="1" pageScale="1" pageWidth="850" pageHeight="1100" math="0" shadow="0">
      <root>
        <mxCell id="0" />
        <mxCell id="1" parent="0" />
        <mxCell id="oND8uqXEmlILKtB4z8An-140" value="" style="rounded=1;whiteSpace=wrap;html=1;fontFamily=Helvetica;fontSize=11;fontColor=default;labelBackgroundColor=default;sketch=1;curveFitting=1;jiggle=2;" parent="1" vertex="1">
          <mxGeometry x="395" y="1090" width="730" height="571" as="geometry" />
        </mxCell>
        <mxCell id="AB6jPQtodKQVOQrO7ifA-14" style="edgeStyle=orthogonalEdgeStyle;rounded=0;orthogonalLoop=1;jettySize=auto;html=1;exitX=1;exitY=0.133;exitDx=0;exitDy=0;curved=1;exitPerimeter=0;" parent="1" source="AB6jPQtodKQVOQrO7ifA-3" target="AB6jPQtodKQVOQrO7ifA-11" edge="1">
          <mxGeometry relative="1" as="geometry" />
        </mxCell>
        <mxCell id="MFXsXubU9WuHbZtoJDCH-28" style="edgeStyle=orthogonalEdgeStyle;shape=connector;curved=1;rounded=0;orthogonalLoop=1;jettySize=auto;html=1;exitX=1;exitY=0.5;exitDx=0;exitDy=0;entryX=0;entryY=0.5;entryDx=0;entryDy=0;strokeColor=default;align=center;verticalAlign=middle;fontFamily=Helvetica;fontSize=11;fontColor=default;labelBackgroundColor=default;endArrow=classic;" parent="1" source="AB6jPQtodKQVOQrO7ifA-2" target="MFXsXubU9WuHbZtoJDCH-27" edge="1">
          <mxGeometry relative="1" as="geometry" />
        </mxCell>
        <mxCell id="AB6jPQtodKQVOQrO7ifA-2" value="AutoStakingFactory" style="swimlane;fontStyle=0;childLayout=stackLayout;horizontal=1;startSize=30;horizontalStack=0;resizeParent=1;resizeParentMax=0;resizeLast=0;collapsible=1;marginBottom=0;whiteSpace=wrap;html=1;" parent="1" vertex="1">
          <mxGeometry x="70" y="210" width="140" height="90" as="geometry" />
        </mxCell>
        <mxCell id="AB6jPQtodKQVOQrO7ifA-3" value="registerVault()" style="text;strokeColor=#666666;fillColor=#f5f5f5;align=left;verticalAlign=middle;spacingLeft=4;spacingRight=4;overflow=hidden;points=[[0,0.5],[1,0.5]];portConstraint=eastwest;rotatable=0;whiteSpace=wrap;html=1;fontColor=#333333;" parent="AB6jPQtodKQVOQrO7ifA-2" vertex="1">
          <mxGeometry y="30" width="140" height="30" as="geometry" />
        </mxCell>
        <mxCell id="AB6jPQtodKQVOQrO7ifA-4" value="manualRegistration()" style="text;strokeColor=#666666;fillColor=#f5f5f5;align=left;verticalAlign=middle;spacingLeft=4;spacingRight=4;overflow=hidden;points=[[0,0.5],[1,0.5]];portConstraint=eastwest;rotatable=0;whiteSpace=wrap;html=1;fontColor=#333333;" parent="AB6jPQtodKQVOQrO7ifA-2" vertex="1">
          <mxGeometry y="60" width="140" height="30" as="geometry" />
        </mxCell>
        <mxCell id="AB6jPQtodKQVOQrO7ifA-15" style="edgeStyle=orthogonalEdgeStyle;rounded=0;orthogonalLoop=1;jettySize=auto;html=1;exitX=1;exitY=0.5;exitDx=0;exitDy=0;" parent="AB6jPQtodKQVOQrO7ifA-2" source="AB6jPQtodKQVOQrO7ifA-2" target="AB6jPQtodKQVOQrO7ifA-3" edge="1">
          <mxGeometry relative="1" as="geometry" />
        </mxCell>
        <mxCell id="AB6jPQtodKQVOQrO7ifA-10" value="&lt;div style=&quot;line-height: 19px;&quot;&gt;OrigamiSwapperWithCallbackDeployer&lt;/div&gt;" style="swimlane;fontStyle=0;childLayout=stackLayout;horizontal=1;startSize=30;horizontalStack=0;resizeParent=1;resizeParentMax=0;resizeLast=0;collapsible=1;marginBottom=0;whiteSpace=wrap;html=1;" parent="1" vertex="1">
          <mxGeometry x="305" y="140" width="240" height="60" as="geometry" />
        </mxCell>
        <mxCell id="AB6jPQtodKQVOQrO7ifA-11" value="deploy()" style="text;strokeColor=#b85450;fillColor=#f8cecc;align=left;verticalAlign=middle;spacingLeft=4;spacingRight=4;overflow=hidden;points=[[0,0.5],[1,0.5]];portConstraint=eastwest;rotatable=0;whiteSpace=wrap;html=1;" parent="AB6jPQtodKQVOQrO7ifA-10" vertex="1">
          <mxGeometry y="30" width="240" height="30" as="geometry" />
        </mxCell>
        <mxCell id="AB6jPQtodKQVOQrO7ifA-31" style="edgeStyle=orthogonalEdgeStyle;shape=link;curved=1;rounded=0;orthogonalLoop=1;jettySize=auto;html=1;exitX=1;exitY=0.5;exitDx=0;exitDy=0;entryX=0.5;entryY=0;entryDx=0;entryDy=0;strokeColor=default;align=center;verticalAlign=middle;fontFamily=Helvetica;fontSize=11;fontColor=default;labelBackgroundColor=default;endArrow=classic;" parent="1" source="AB6jPQtodKQVOQrO7ifA-7" target="MFXsXubU9WuHbZtoJDCH-29" edge="1">
          <mxGeometry relative="1" as="geometry">
            <mxPoint x="675" y="270" as="targetPoint" />
          </mxGeometry>
        </mxCell>
        <mxCell id="oND8uqXEmlILKtB4z8An-110" value="" style="rounded=1;whiteSpace=wrap;html=1;fontFamily=Helvetica;fontSize=11;fontColor=default;labelBackgroundColor=default;sketch=1;curveFitting=1;jiggle=2;" parent="1" vertex="1">
          <mxGeometry x="435" y="1140" width="490" height="511" as="geometry" />
        </mxCell>
        <mxCell id="oND8uqXEmlILKtB4z8An-111" value="&lt;font style=&quot;font-size: 15px;&quot;&gt;&lt;b&gt;OrigamiAutoStaking&lt;/b&gt;&lt;/font&gt;" style="text;html=1;align=center;verticalAlign=middle;whiteSpace=wrap;rounded=0;fontFamily=Helvetica;fontSize=11;labelBackgroundColor=default;fillColor=#dae8fc;strokeColor=#6c8ebf;fillStyle=auto;glass=0;sketch=1;curveFitting=1;jiggle=2;" parent="1" vertex="1">
          <mxGeometry x="505" y="1150" width="360" height="31" as="geometry" />
        </mxCell>
        <mxCell id="oND8uqXEmlILKtB4z8An-115" style="edgeStyle=orthogonalEdgeStyle;shape=connector;curved=1;rounded=0;orthogonalLoop=1;jettySize=auto;html=1;exitX=1;exitY=0.5;exitDx=0;exitDy=0;entryX=0;entryY=0.5;entryDx=0;entryDy=0;strokeColor=#b85450;align=center;verticalAlign=middle;fontFamily=Helvetica;fontSize=11;fontColor=default;labelBackgroundColor=default;endArrow=classic;fillColor=#f8cecc;" parent="1" source="oND8uqXEmlILKtB4z8An-112" target="oND8uqXEmlILKtB4z8An-114" edge="1">
          <mxGeometry relative="1" as="geometry" />
        </mxCell>
        <mxCell id="oND8uqXEmlILKtB4z8An-112" value="harvestVault() elevatedAccess (now)" style="rounded=1;whiteSpace=wrap;html=1;fontFamily=Helvetica;fontSize=11;labelBackgroundColor=default;fillColor=#f8cecc;strokeColor=#b85450;align=left;" parent="1" vertex="1">
          <mxGeometry x="455" y="1220" width="200" height="31" as="geometry" />
        </mxCell>
        <mxCell id="oND8uqXEmlILKtB4z8An-151" style="edgeStyle=orthogonalEdgeStyle;shape=connector;curved=1;rounded=0;orthogonalLoop=1;jettySize=auto;html=1;exitX=1;exitY=0.5;exitDx=0;exitDy=0;entryX=0;entryY=0.5;entryDx=0;entryDy=0;strokeColor=#d6b656;align=center;verticalAlign=middle;fontFamily=Helvetica;fontSize=11;fontColor=default;labelBackgroundColor=default;endArrow=classic;fillColor=#fff2cc;" parent="1" source="oND8uqXEmlILKtB4z8An-113" target="oND8uqXEmlILKtB4z8An-114" edge="1">
          <mxGeometry relative="1" as="geometry" />
        </mxCell>
        <mxCell id="oND8uqXEmlILKtB4z8An-113" value="swapCallback() only swapper" style="rounded=1;whiteSpace=wrap;html=1;fontFamily=Helvetica;fontSize=11;labelBackgroundColor=default;fillColor=#fff2cc;strokeColor=#d6b656;align=left;" parent="1" vertex="1">
          <mxGeometry x="455" y="1260" width="200" height="31" as="geometry" />
        </mxCell>
        <mxCell id="oND8uqXEmlILKtB4z8An-119" style="edgeStyle=orthogonalEdgeStyle;shape=connector;curved=0;rounded=1;orthogonalLoop=1;jettySize=auto;html=1;exitX=0.25;exitY=1;exitDx=0;exitDy=0;entryX=0;entryY=0.5;entryDx=0;entryDy=0;strokeColor=#b85450;align=center;verticalAlign=middle;fontFamily=Helvetica;fontSize=11;fontColor=default;labelBackgroundColor=default;endArrow=classic;fillColor=#f8cecc;" parent="1" source="oND8uqXEmlILKtB4z8An-114" target="oND8uqXEmlILKtB4z8An-116" edge="1">
          <mxGeometry relative="1" as="geometry" />
        </mxCell>
        <mxCell id="oND8uqXEmlILKtB4z8An-120" style="edgeStyle=orthogonalEdgeStyle;shape=connector;curved=0;rounded=1;orthogonalLoop=1;jettySize=auto;html=1;exitX=0.25;exitY=1;exitDx=0;exitDy=0;entryX=0;entryY=0.5;entryDx=0;entryDy=0;strokeColor=#b85450;align=center;verticalAlign=middle;fontFamily=Helvetica;fontSize=11;fontColor=default;labelBackgroundColor=default;endArrow=classic;fillColor=#f8cecc;" parent="1" source="oND8uqXEmlILKtB4z8An-114" target="oND8uqXEmlILKtB4z8An-118" edge="1">
          <mxGeometry relative="1" as="geometry" />
        </mxCell>
        <mxCell id="oND8uqXEmlILKtB4z8An-114" value="&lt;div style=&quot;line-height: 19px;&quot;&gt;_harvestAndNotifyRewards()&lt;/div&gt;" style="rounded=1;whiteSpace=wrap;html=1;fontFamily=Helvetica;fontSize=11;labelBackgroundColor=default;align=left;fillColor=#f8cecc;strokeColor=#b85450;fillStyle=hatch;glass=0;" parent="1" vertex="1">
          <mxGeometry x="695" y="1260" width="150" height="31" as="geometry" />
        </mxCell>
        <mxCell id="oND8uqXEmlILKtB4z8An-127" style="edgeStyle=orthogonalEdgeStyle;shape=connector;curved=0;rounded=1;orthogonalLoop=1;jettySize=auto;html=1;exitX=0.25;exitY=1;exitDx=0;exitDy=0;entryX=0;entryY=0.5;entryDx=0;entryDy=0;strokeColor=#b85450;align=center;verticalAlign=middle;fontFamily=Helvetica;fontSize=11;fontColor=default;labelBackgroundColor=default;endArrow=classic;fillColor=#f8cecc;" parent="1" source="oND8uqXEmlILKtB4z8An-116" target="oND8uqXEmlILKtB4z8An-125" edge="1">
          <mxGeometry relative="1" as="geometry" />
        </mxCell>
        <mxCell id="MFXsXubU9WuHbZtoJDCH-5" value="rewardTokens&lt;div&gt;transfer&lt;/div&gt;" style="edgeStyle=orthogonalEdgeStyle;rounded=0;orthogonalLoop=1;jettySize=auto;html=1;exitX=1;exitY=0.25;exitDx=0;exitDy=0;curved=1;dashed=1;dashPattern=8 8;fillColor=#d5e8d4;strokeColor=#82b366;" parent="1" source="oND8uqXEmlILKtB4z8An-114" target="MFXsXubU9WuHbZtoJDCH-1" edge="1">
          <mxGeometry x="0.2987" y="35" relative="1" as="geometry">
            <Array as="points">
              <mxPoint x="1035" y="1268" />
            </Array>
            <mxPoint as="offset" />
          </mxGeometry>
        </mxCell>
        <mxCell id="oND8uqXEmlILKtB4z8An-116" value="&lt;div style=&quot;line-height: 19px;&quot;&gt;&lt;div style=&quot;line-height: 19px;&quot;&gt;_claimAndProcessRewards()&lt;/div&gt;&lt;/div&gt;" style="rounded=1;whiteSpace=wrap;html=1;fontFamily=Helvetica;fontSize=11;labelBackgroundColor=default;align=left;fillColor=#f8cecc;strokeColor=#b85450;fillStyle=hatch;glass=0;" parent="1" vertex="1">
          <mxGeometry x="755" y="1309" width="150" height="31" as="geometry" />
        </mxCell>
        <mxCell id="oND8uqXEmlILKtB4z8An-118" value="&lt;div style=&quot;line-height: 19px;&quot;&gt;&lt;div style=&quot;line-height: 19px;&quot;&gt;&lt;div style=&quot;line-height: 19px;&quot;&gt;_notifyRewardAmount()&lt;/div&gt;&lt;/div&gt;&lt;/div&gt;" style="rounded=1;whiteSpace=wrap;html=1;fontFamily=Helvetica;fontSize=11;labelBackgroundColor=default;align=left;fillColor=#f8cecc;strokeColor=#b85450;fillStyle=hatch;glass=0;" parent="1" vertex="1">
          <mxGeometry x="755" y="1371" width="150" height="31" as="geometry" />
        </mxCell>
        <mxCell id="oND8uqXEmlILKtB4z8An-125" value="&lt;div style=&quot;line-height: 19px;&quot;&gt;&lt;div style=&quot;line-height: 19px;&quot;&gt;&lt;div style=&quot;line-height: 19px;&quot;&gt;_postProcessClaimedRewards()&lt;/div&gt;&lt;/div&gt;&lt;/div&gt;" style="rounded=1;whiteSpace=wrap;html=1;fontFamily=Helvetica;fontSize=11;labelBackgroundColor=default;align=left;fillColor=#f8cecc;strokeColor=#b85450;fillStyle=hatch;glass=0;" parent="1" vertex="1">
          <mxGeometry x="945" y="1344" width="170" height="31" as="geometry" />
        </mxCell>
        <mxCell id="oND8uqXEmlILKtB4z8An-141" value="&lt;font style=&quot;font-size: 15px;&quot;&gt;&lt;b&gt;OrigamiAutoStakingToErc4626&lt;/b&gt;&lt;/font&gt;" style="text;html=1;align=center;verticalAlign=middle;whiteSpace=wrap;rounded=0;fontFamily=Helvetica;fontSize=11;labelBackgroundColor=default;fillColor=#dae8fc;strokeColor=#6c8ebf;fillStyle=auto;glass=0;sketch=1;curveFitting=1;jiggle=2;" parent="1" vertex="1">
          <mxGeometry x="562" y="1100" width="360" height="31" as="geometry" />
        </mxCell>
        <mxCell id="oND8uqXEmlILKtB4z8An-145" value="" style="group" parent="1" vertex="1" connectable="0">
          <mxGeometry x="1165" y="1401" width="200" height="231" as="geometry" />
        </mxCell>
        <mxCell id="oND8uqXEmlILKtB4z8An-121" value="" style="rounded=1;whiteSpace=wrap;html=1;fontFamily=Helvetica;fontSize=11;labelBackgroundColor=default;fillColor=#e1d5e7;strokeColor=#9673a6;" parent="oND8uqXEmlILKtB4z8An-145" vertex="1">
          <mxGeometry width="200" height="231" as="geometry" />
        </mxCell>
        <mxCell id="oND8uqXEmlILKtB4z8An-122" value="&lt;font style=&quot;font-size: 15px;&quot;&gt;&lt;b&gt;Infrared Vault&lt;/b&gt;&lt;/font&gt;" style="text;html=1;align=center;verticalAlign=middle;whiteSpace=wrap;rounded=0;fontFamily=Helvetica;fontSize=11;labelBackgroundColor=default;fillColor=#dae8fc;strokeColor=#6c8ebf;fillStyle=auto;glass=0;sketch=1;curveFitting=1;jiggle=2;" parent="oND8uqXEmlILKtB4z8An-145" vertex="1">
          <mxGeometry x="20" y="5" width="160" height="31" as="geometry" />
        </mxCell>
        <mxCell id="oND8uqXEmlILKtB4z8An-123" value="&lt;div style=&quot;line-height: 19px;&quot;&gt;getReward()&lt;/div&gt;" style="rounded=1;whiteSpace=wrap;html=1;fontFamily=Helvetica;fontSize=11;labelBackgroundColor=default;align=left;fillColor=#f8cecc;strokeColor=#b85450;fillStyle=auto;glass=0;" parent="oND8uqXEmlILKtB4z8An-145" vertex="1">
          <mxGeometry x="10" y="50" width="150" height="31" as="geometry" />
        </mxCell>
        <mxCell id="oND8uqXEmlILKtB4z8An-166" value="&lt;div style=&quot;line-height: 19px;&quot;&gt;stake()&lt;/div&gt;" style="rounded=1;whiteSpace=wrap;html=1;fontFamily=Helvetica;fontSize=11;labelBackgroundColor=default;align=left;fillColor=#f8cecc;strokeColor=#b85450;fillStyle=auto;glass=0;" parent="oND8uqXEmlILKtB4z8An-145" vertex="1">
          <mxGeometry x="10" y="90" width="150" height="31" as="geometry" />
        </mxCell>
        <mxCell id="oND8uqXEmlILKtB4z8An-173" value="&lt;div style=&quot;line-height: 19px;&quot;&gt;withdraw()&lt;/div&gt;" style="rounded=1;whiteSpace=wrap;html=1;fontFamily=Helvetica;fontSize=11;labelBackgroundColor=default;align=left;fillColor=#f8cecc;strokeColor=#b85450;fillStyle=auto;glass=0;" parent="oND8uqXEmlILKtB4z8An-145" vertex="1">
          <mxGeometry x="10" y="129" width="150" height="31" as="geometry" />
        </mxCell>
        <mxCell id="oND8uqXEmlILKtB4z8An-186" value="&lt;div style=&quot;line-height: 19px;&quot;&gt;getRewardForUser()&lt;/div&gt;" style="rounded=1;whiteSpace=wrap;html=1;fontFamily=Helvetica;fontSize=11;labelBackgroundColor=default;align=left;fillColor=#f8cecc;strokeColor=#b85450;fillStyle=auto;glass=0;" parent="oND8uqXEmlILKtB4z8An-145" vertex="1">
          <mxGeometry x="10" y="160" width="150" height="31" as="geometry" />
        </mxCell>
        <mxCell id="oND8uqXEmlILKtB4z8An-124" value="&amp;lt;&amp;lt; iBGT" style="edgeStyle=orthogonalEdgeStyle;shape=connector;curved=1;rounded=0;orthogonalLoop=1;jettySize=auto;html=1;exitX=1;exitY=0.5;exitDx=0;exitDy=0;entryX=0;entryY=0.5;entryDx=0;entryDy=0;strokeColor=#b85450;align=center;verticalAlign=middle;fontFamily=Helvetica;fontSize=11;fontColor=default;labelBackgroundColor=default;endArrow=classic;fillColor=#f8cecc;" parent="1" source="oND8uqXEmlILKtB4z8An-116" target="oND8uqXEmlILKtB4z8An-123" edge="1">
          <mxGeometry relative="1" as="geometry" />
        </mxCell>
        <mxCell id="oND8uqXEmlILKtB4z8An-146" value="" style="group" parent="1" vertex="1" connectable="0">
          <mxGeometry x="1210" y="1150" width="200" height="111" as="geometry" />
        </mxCell>
        <mxCell id="oND8uqXEmlILKtB4z8An-147" value="" style="rounded=1;whiteSpace=wrap;html=1;fontFamily=Helvetica;fontSize=11;labelBackgroundColor=default;fillColor=#e1d5e7;strokeColor=#9673a6;" parent="oND8uqXEmlILKtB4z8An-146" vertex="1">
          <mxGeometry width="200" height="111" as="geometry" />
        </mxCell>
        <mxCell id="oND8uqXEmlILKtB4z8An-148" value="&lt;font style=&quot;font-size: 15px;&quot;&gt;&lt;b&gt;ERC4626 (oriBGT)&lt;/b&gt;&lt;/font&gt;" style="text;html=1;align=center;verticalAlign=middle;whiteSpace=wrap;rounded=0;fontFamily=Helvetica;fontSize=11;labelBackgroundColor=default;fillColor=#dae8fc;strokeColor=#6c8ebf;fillStyle=auto;glass=0;sketch=1;curveFitting=1;jiggle=2;" parent="oND8uqXEmlILKtB4z8An-146" vertex="1">
          <mxGeometry x="20" y="10" width="160" height="31" as="geometry" />
        </mxCell>
        <mxCell id="oND8uqXEmlILKtB4z8An-149" value="&lt;div style=&quot;line-height: 19px;&quot;&gt;deposit()&lt;/div&gt;" style="rounded=1;whiteSpace=wrap;html=1;fontFamily=Helvetica;fontSize=11;labelBackgroundColor=default;align=left;fillColor=#f8cecc;strokeColor=#b85450;fillStyle=auto;glass=0;" parent="oND8uqXEmlILKtB4z8An-146" vertex="1">
          <mxGeometry x="10" y="50" width="150" height="31" as="geometry" />
        </mxCell>
        <mxCell id="oND8uqXEmlILKtB4z8An-153" style="edgeStyle=orthogonalEdgeStyle;shape=connector;curved=1;rounded=0;orthogonalLoop=1;jettySize=auto;html=1;exitX=1;exitY=0.5;exitDx=0;exitDy=0;entryX=0;entryY=0.5;entryDx=0;entryDy=0;strokeColor=#666666;align=center;verticalAlign=middle;fontFamily=Helvetica;fontSize=11;fontColor=default;labelBackgroundColor=default;endArrow=classic;fillColor=#f5f5f5;" parent="1" source="oND8uqXEmlILKtB4z8An-152" target="oND8uqXEmlILKtB4z8An-114" edge="1">
          <mxGeometry relative="1" as="geometry" />
        </mxCell>
        <mxCell id="oND8uqXEmlILKtB4z8An-152" value="notifyRewardAmount() only Elevated" style="rounded=1;whiteSpace=wrap;html=1;fontFamily=Helvetica;fontSize=11;labelBackgroundColor=default;fillColor=#f5f5f5;strokeColor=#666666;align=left;fontColor=#333333;" parent="1" vertex="1">
          <mxGeometry x="455" y="1300" width="200" height="31" as="geometry" />
        </mxCell>
        <mxCell id="oND8uqXEmlILKtB4z8An-155" style="edgeStyle=orthogonalEdgeStyle;shape=connector;curved=1;rounded=0;orthogonalLoop=1;jettySize=auto;html=1;exitX=1;exitY=0.5;exitDx=0;exitDy=0;entryX=0;entryY=0.5;entryDx=0;entryDy=0;strokeColor=#666666;align=center;verticalAlign=middle;fontFamily=Helvetica;fontSize=11;fontColor=default;labelBackgroundColor=default;endArrow=classic;fillColor=#f5f5f5;" parent="1" source="oND8uqXEmlILKtB4z8An-154" target="oND8uqXEmlILKtB4z8An-114" edge="1">
          <mxGeometry relative="1" as="geometry" />
        </mxCell>
        <mxCell id="oND8uqXEmlILKtB4z8An-154" value="setPerformanceFees() only Elevated" style="rounded=1;whiteSpace=wrap;html=1;fontFamily=Helvetica;fontSize=11;labelBackgroundColor=default;fillColor=#f5f5f5;strokeColor=#666666;align=left;fontColor=#333333;" parent="1" vertex="1">
          <mxGeometry x="455" y="1340" width="200" height="31" as="geometry" />
        </mxCell>
        <mxCell id="oND8uqXEmlILKtB4z8An-158" style="edgeStyle=orthogonalEdgeStyle;shape=connector;curved=1;rounded=0;orthogonalLoop=1;jettySize=auto;html=1;exitX=1;exitY=0.5;exitDx=0;exitDy=0;entryX=0;entryY=0.75;entryDx=0;entryDy=0;strokeColor=#666666;align=center;verticalAlign=middle;fontFamily=Helvetica;fontSize=11;fontColor=default;labelBackgroundColor=default;endArrow=classic;fillColor=#f5f5f5;" parent="1" source="oND8uqXEmlILKtB4z8An-157" target="oND8uqXEmlILKtB4z8An-116" edge="1">
          <mxGeometry relative="1" as="geometry">
            <mxPoint x="715" y="1445" as="targetPoint" />
            <Array as="points">
              <mxPoint x="700" y="1396" />
              <mxPoint x="700" y="1332" />
            </Array>
          </mxGeometry>
        </mxCell>
        <mxCell id="oND8uqXEmlILKtB4z8An-157" value="migrateUnderlyingRewardsVault() Elevated" style="rounded=1;whiteSpace=wrap;html=1;fontFamily=Helvetica;fontSize=11;labelBackgroundColor=default;fillColor=#f5f5f5;strokeColor=#666666;align=left;fontColor=#333333;" parent="1" vertex="1">
          <mxGeometry x="455" y="1380" width="220" height="31" as="geometry" />
        </mxCell>
        <mxCell id="oND8uqXEmlILKtB4z8An-168" value="stakingToken &amp;gt;&amp;gt;" style="edgeStyle=orthogonalEdgeStyle;shape=connector;curved=1;rounded=0;orthogonalLoop=1;jettySize=auto;html=1;exitX=1;exitY=0.5;exitDx=0;exitDy=0;entryX=0;entryY=0.5;entryDx=0;entryDy=0;strokeColor=#b85450;align=center;verticalAlign=middle;fontFamily=Helvetica;fontSize=11;fontColor=default;labelBackgroundColor=default;endArrow=classic;fillColor=#f8cecc;" parent="1" source="oND8uqXEmlILKtB4z8An-160" target="oND8uqXEmlILKtB4z8An-166" edge="1">
          <mxGeometry relative="1" as="geometry" />
        </mxCell>
        <mxCell id="oND8uqXEmlILKtB4z8An-169" style="edgeStyle=orthogonalEdgeStyle;shape=connector;curved=1;rounded=0;orthogonalLoop=1;jettySize=auto;html=1;exitX=1;exitY=0.75;exitDx=0;exitDy=0;entryX=0;entryY=0.75;entryDx=0;entryDy=0;strokeColor=#b85450;align=center;verticalAlign=middle;fontFamily=Helvetica;fontSize=11;fontColor=default;labelBackgroundColor=default;endArrow=classic;fillColor=#f8cecc;strokeWidth=2;" parent="1" source="oND8uqXEmlILKtB4z8An-160" target="oND8uqXEmlILKtB4z8An-116" edge="1">
          <mxGeometry relative="1" as="geometry">
            <Array as="points">
              <mxPoint x="655" y="1462" />
              <mxPoint x="710" y="1462" />
              <mxPoint x="710" y="1332" />
            </Array>
          </mxGeometry>
        </mxCell>
        <mxCell id="oND8uqXEmlILKtB4z8An-160" value="stake()" style="rounded=1;whiteSpace=wrap;html=1;fontFamily=Helvetica;fontSize=11;labelBackgroundColor=default;fillColor=#f8cecc;strokeColor=#b85450;align=left;" parent="1" vertex="1">
          <mxGeometry x="455" y="1440" width="200" height="31" as="geometry" />
        </mxCell>
        <mxCell id="oND8uqXEmlILKtB4z8An-161" value="" style="group" parent="1" vertex="1" connectable="0">
          <mxGeometry x="145" y="1401" width="60" height="91" as="geometry" />
        </mxCell>
        <mxCell id="oND8uqXEmlILKtB4z8An-162" value="bob" style="ellipse;whiteSpace=wrap;html=1;aspect=fixed;fontFamily=Helvetica;fontSize=11;labelBackgroundColor=default;fillColor=#f8cecc;strokeColor=#b85450;" parent="oND8uqXEmlILKtB4z8An-161" vertex="1">
          <mxGeometry y="30" width="60" height="61" as="geometry" />
        </mxCell>
        <mxCell id="oND8uqXEmlILKtB4z8An-163" value="" style="ellipse;whiteSpace=wrap;html=1;aspect=fixed;fontFamily=Helvetica;fontSize=11;labelBackgroundColor=default;fillColor=#f8cecc;strokeColor=#b85450;" parent="oND8uqXEmlILKtB4z8An-161" vertex="1">
          <mxGeometry x="15" y="8" width="30" height="31" as="geometry" />
        </mxCell>
        <mxCell id="oND8uqXEmlILKtB4z8An-164" value="stakingToken &amp;gt;&amp;gt;" style="edgeStyle=orthogonalEdgeStyle;shape=connector;curved=1;rounded=0;orthogonalLoop=1;jettySize=auto;html=1;exitX=1;exitY=0;exitDx=0;exitDy=0;entryX=0;entryY=0.5;entryDx=0;entryDy=0;strokeColor=#b85450;align=center;verticalAlign=middle;fontFamily=Helvetica;fontSize=11;fontColor=default;labelBackgroundColor=default;endArrow=classic;fillColor=#f8cecc;" parent="1" source="oND8uqXEmlILKtB4z8An-162" target="oND8uqXEmlILKtB4z8An-160" edge="1">
          <mxGeometry relative="1" as="geometry" />
        </mxCell>
        <mxCell id="oND8uqXEmlILKtB4z8An-171" value="&amp;lt;&amp;lt; stakingToken" style="edgeStyle=orthogonalEdgeStyle;shape=connector;curved=1;rounded=0;orthogonalLoop=1;jettySize=auto;html=1;exitX=0;exitY=0.5;exitDx=0;exitDy=0;entryX=1;entryY=0.5;entryDx=0;entryDy=0;strokeColor=#b85450;align=center;verticalAlign=middle;fontFamily=Helvetica;fontSize=11;fontColor=default;labelBackgroundColor=default;endArrow=classic;fillColor=#f8cecc;" parent="1" source="oND8uqXEmlILKtB4z8An-165" target="oND8uqXEmlILKtB4z8An-162" edge="1">
          <mxGeometry relative="1" as="geometry" />
        </mxCell>
        <mxCell id="oND8uqXEmlILKtB4z8An-172" style="edgeStyle=orthogonalEdgeStyle;shape=connector;curved=1;rounded=0;orthogonalLoop=1;jettySize=auto;html=1;exitX=1;exitY=0.25;exitDx=0;exitDy=0;entryX=0;entryY=0.75;entryDx=0;entryDy=0;strokeColor=#b85450;align=center;verticalAlign=middle;fontFamily=Helvetica;fontSize=11;fontColor=default;labelBackgroundColor=default;endArrow=classic;fillColor=#f8cecc;strokeWidth=2;" parent="1" source="oND8uqXEmlILKtB4z8An-165" target="oND8uqXEmlILKtB4z8An-116" edge="1">
          <mxGeometry relative="1" as="geometry">
            <Array as="points">
              <mxPoint x="715" y="1488" />
              <mxPoint x="715" y="1332" />
            </Array>
          </mxGeometry>
        </mxCell>
        <mxCell id="oND8uqXEmlILKtB4z8An-174" value="&amp;lt;&amp;lt; stakingToken" style="edgeStyle=orthogonalEdgeStyle;shape=connector;curved=1;rounded=0;orthogonalLoop=1;jettySize=auto;html=1;exitX=1;exitY=0.5;exitDx=0;exitDy=0;entryX=0;entryY=0.5;entryDx=0;entryDy=0;strokeColor=#b85450;align=center;verticalAlign=middle;fontFamily=Helvetica;fontSize=11;fontColor=default;labelBackgroundColor=default;endArrow=classic;fillColor=#f8cecc;" parent="1" source="oND8uqXEmlILKtB4z8An-165" target="oND8uqXEmlILKtB4z8An-173" edge="1">
          <mxGeometry relative="1" as="geometry" />
        </mxCell>
        <mxCell id="oND8uqXEmlILKtB4z8An-165" value="withdraw()" style="rounded=1;whiteSpace=wrap;html=1;fontFamily=Helvetica;fontSize=11;labelBackgroundColor=default;fillColor=#f8cecc;strokeColor=#b85450;align=left;" parent="1" vertex="1">
          <mxGeometry x="455" y="1480" width="200" height="31" as="geometry" />
        </mxCell>
        <mxCell id="oND8uqXEmlILKtB4z8An-185" style="edgeStyle=orthogonalEdgeStyle;shape=connector;curved=1;rounded=0;orthogonalLoop=1;jettySize=auto;html=1;exitX=0.5;exitY=1;exitDx=0;exitDy=0;strokeColor=#b85450;align=center;verticalAlign=middle;fontFamily=Helvetica;fontSize=11;fontColor=default;labelBackgroundColor=default;endArrow=classic;fillColor=#f8cecc;" parent="1" source="oND8uqXEmlILKtB4z8An-175" target="oND8uqXEmlILKtB4z8An-176" edge="1">
          <mxGeometry relative="1" as="geometry" />
        </mxCell>
        <mxCell id="oND8uqXEmlILKtB4z8An-175" value="getReward()" style="rounded=1;whiteSpace=wrap;html=1;fontFamily=Helvetica;fontSize=11;labelBackgroundColor=default;fillColor=#f8cecc;strokeColor=#b85450;align=left;" parent="1" vertex="1">
          <mxGeometry x="455" y="1520" width="200" height="31" as="geometry" />
        </mxCell>
        <mxCell id="oND8uqXEmlILKtB4z8An-184" style="edgeStyle=orthogonalEdgeStyle;shape=connector;curved=1;rounded=0;orthogonalLoop=1;jettySize=auto;html=1;exitX=1;exitY=0.5;exitDx=0;exitDy=0;entryX=0;entryY=0.75;entryDx=0;entryDy=0;strokeColor=#b85450;align=center;verticalAlign=middle;fontFamily=Helvetica;fontSize=11;fontColor=default;labelBackgroundColor=default;endArrow=classic;fillColor=#f8cecc;strokeWidth=2;" parent="1" source="oND8uqXEmlILKtB4z8An-176" target="oND8uqXEmlILKtB4z8An-116" edge="1">
          <mxGeometry relative="1" as="geometry">
            <Array as="points">
              <mxPoint x="720" y="1576" />
              <mxPoint x="720" y="1332" />
            </Array>
          </mxGeometry>
        </mxCell>
        <mxCell id="oND8uqXEmlILKtB4z8An-176" value="getRewarForUser()" style="rounded=1;whiteSpace=wrap;html=1;fontFamily=Helvetica;fontSize=11;labelBackgroundColor=default;fillColor=#f8cecc;strokeColor=#b85450;align=left;" parent="1" vertex="1">
          <mxGeometry x="455" y="1560" width="200" height="31" as="geometry" />
        </mxCell>
        <mxCell id="oND8uqXEmlILKtB4z8An-179" value="&amp;lt;&amp;lt; oriBGT" style="edgeStyle=orthogonalEdgeStyle;shape=connector;curved=1;rounded=0;orthogonalLoop=1;jettySize=auto;html=1;exitX=1;exitY=1;exitDx=0;exitDy=0;entryX=0;entryY=0.5;entryDx=0;entryDy=0;strokeColor=#b85450;align=center;verticalAlign=middle;fontFamily=Helvetica;fontSize=11;fontColor=default;labelBackgroundColor=default;endArrow=classic;fillColor=#f8cecc;" parent="1" source="oND8uqXEmlILKtB4z8An-162" target="oND8uqXEmlILKtB4z8An-175" edge="1">
          <mxGeometry relative="1" as="geometry" />
        </mxCell>
        <mxCell id="oND8uqXEmlILKtB4z8An-180" value="" style="group" parent="1" vertex="1" connectable="0">
          <mxGeometry x="290" y="1605" width="60" height="91" as="geometry" />
        </mxCell>
        <mxCell id="oND8uqXEmlILKtB4z8An-181" value="alice" style="ellipse;whiteSpace=wrap;html=1;aspect=fixed;fontFamily=Helvetica;fontSize=11;labelBackgroundColor=default;fillColor=#f8cecc;strokeColor=#b85450;" parent="oND8uqXEmlILKtB4z8An-180" vertex="1">
          <mxGeometry y="30" width="60" height="61" as="geometry" />
        </mxCell>
        <mxCell id="oND8uqXEmlILKtB4z8An-182" value="" style="ellipse;whiteSpace=wrap;html=1;aspect=fixed;fontFamily=Helvetica;fontSize=11;labelBackgroundColor=default;fillColor=#f8cecc;strokeColor=#b85450;" parent="oND8uqXEmlILKtB4z8An-180" vertex="1">
          <mxGeometry x="15" y="8" width="30" height="31" as="geometry" />
        </mxCell>
        <mxCell id="oND8uqXEmlILKtB4z8An-183" style="edgeStyle=orthogonalEdgeStyle;shape=connector;curved=1;rounded=0;orthogonalLoop=1;jettySize=auto;html=1;exitX=1;exitY=0;exitDx=0;exitDy=0;entryX=0;entryY=0.5;entryDx=0;entryDy=0;strokeColor=#b85450;align=center;verticalAlign=middle;fontFamily=Helvetica;fontSize=11;fontColor=default;labelBackgroundColor=default;endArrow=classic;fillColor=#f8cecc;" parent="1" source="oND8uqXEmlILKtB4z8An-181" target="oND8uqXEmlILKtB4z8An-176" edge="1">
          <mxGeometry relative="1" as="geometry" />
        </mxCell>
        <mxCell id="MFXsXubU9WuHbZtoJDCH-3" value="" style="group" parent="1" vertex="1" connectable="0">
          <mxGeometry x="922" y="940" width="230" height="120" as="geometry" />
        </mxCell>
        <mxCell id="MFXsXubU9WuHbZtoJDCH-1" value="&lt;div&gt;&lt;br&gt;&lt;/div&gt;&lt;div&gt;rewardTokens&amp;nbsp; &amp;gt;&amp;gt;swap&amp;gt;&amp;gt;&amp;nbsp; &amp;nbsp;iBGT&lt;/div&gt;" style="rounded=1;whiteSpace=wrap;html=1;" parent="MFXsXubU9WuHbZtoJDCH-3" vertex="1">
          <mxGeometry width="230" height="120" as="geometry" />
        </mxCell>
        <mxCell id="MFXsXubU9WuHbZtoJDCH-2" value="&lt;div style=&quot;line-height: 19px;&quot;&gt;&lt;b&gt;OrigamiSwapperWithCallback&lt;/b&gt;&lt;/div&gt;" style="text;html=1;align=center;verticalAlign=middle;whiteSpace=wrap;rounded=0;fontFamily=Helvetica;fontSize=11;labelBackgroundColor=default;fillColor=#dae8fc;strokeColor=#6c8ebf;fillStyle=auto;glass=0;sketch=1;curveFitting=1;jiggle=2;" parent="MFXsXubU9WuHbZtoJDCH-3" vertex="1">
          <mxGeometry x="27.5" y="10" width="175" height="30" as="geometry" />
        </mxCell>
        <mxCell id="MFXsXubU9WuHbZtoJDCH-6" value="" style="group" parent="1" vertex="1" connectable="0">
          <mxGeometry x="-100" y="173" width="60" height="90" as="geometry" />
        </mxCell>
        <mxCell id="MFXsXubU9WuHbZtoJDCH-7" value="admin" style="ellipse;whiteSpace=wrap;html=1;aspect=fixed;fontFamily=Helvetica;fontSize=11;labelBackgroundColor=default;fillColor=#f5f5f5;strokeColor=#666666;fontColor=#333333;" parent="MFXsXubU9WuHbZtoJDCH-6" vertex="1">
          <mxGeometry y="30" width="60" height="60" as="geometry" />
        </mxCell>
        <mxCell id="MFXsXubU9WuHbZtoJDCH-8" value="" style="ellipse;whiteSpace=wrap;html=1;aspect=fixed;fontFamily=Helvetica;fontSize=11;labelBackgroundColor=default;fillColor=#f5f5f5;strokeColor=#666666;fontColor=#333333;" parent="MFXsXubU9WuHbZtoJDCH-6" vertex="1">
          <mxGeometry x="15" y="7" width="30" height="30" as="geometry" />
        </mxCell>
        <mxCell id="MFXsXubU9WuHbZtoJDCH-9" style="edgeStyle=orthogonalEdgeStyle;rounded=0;orthogonalLoop=1;jettySize=auto;html=1;exitX=1;exitY=0.5;exitDx=0;exitDy=0;entryX=0;entryY=0.25;entryDx=0;entryDy=0;" parent="1" source="MFXsXubU9WuHbZtoJDCH-7" target="AB6jPQtodKQVOQrO7ifA-2" edge="1">
          <mxGeometry relative="1" as="geometry" />
        </mxCell>
        <mxCell id="AB6jPQtodKQVOQrO7ifA-6" value="&lt;div style=&quot;line-height: 19px;&quot;&gt;OrigamiAutoStakingToErc4626Deployer&lt;/div&gt;" style="swimlane;fontStyle=0;childLayout=stackLayout;horizontal=1;startSize=30;horizontalStack=0;resizeParent=1;resizeParentMax=0;resizeLast=0;collapsible=1;marginBottom=0;whiteSpace=wrap;html=1;" parent="1" vertex="1">
          <mxGeometry x="305" y="225" width="245" height="60" as="geometry" />
        </mxCell>
        <mxCell id="AB6jPQtodKQVOQrO7ifA-7" value="deploy()" style="text;strokeColor=#b85450;fillColor=#f8cecc;align=left;verticalAlign=middle;spacingLeft=4;spacingRight=4;overflow=hidden;points=[[0,0.5],[1,0.5]];portConstraint=eastwest;rotatable=0;whiteSpace=wrap;html=1;" parent="AB6jPQtodKQVOQrO7ifA-6" vertex="1">
          <mxGeometry y="30" width="245" height="30" as="geometry" />
        </mxCell>
        <mxCell id="MFXsXubU9WuHbZtoJDCH-15" style="edgeStyle=orthogonalEdgeStyle;shape=connector;curved=1;rounded=0;orthogonalLoop=1;jettySize=auto;html=1;exitX=0.984;exitY=0.123;exitDx=0;exitDy=0;entryX=0;entryY=0.5;entryDx=0;entryDy=0;strokeColor=default;align=center;verticalAlign=middle;fontFamily=Helvetica;fontSize=11;fontColor=default;labelBackgroundColor=default;endArrow=classic;exitPerimeter=0;" parent="1" source="AB6jPQtodKQVOQrO7ifA-3" target="AB6jPQtodKQVOQrO7ifA-7" edge="1">
          <mxGeometry relative="1" as="geometry" />
        </mxCell>
        <mxCell id="MFXsXubU9WuHbZtoJDCH-19" style="edgeStyle=orthogonalEdgeStyle;shape=connector;curved=1;rounded=0;orthogonalLoop=1;jettySize=auto;html=1;exitX=1;exitY=0.5;exitDx=0;exitDy=0;strokeColor=default;align=center;verticalAlign=middle;fontFamily=Helvetica;fontSize=11;fontColor=default;labelBackgroundColor=default;endArrow=classic;entryX=0;entryY=0.25;entryDx=0;entryDy=0;" parent="1" source="AB6jPQtodKQVOQrO7ifA-3" target="MFXsXubU9WuHbZtoJDCH-20" edge="1">
          <mxGeometry relative="1" as="geometry">
            <mxPoint x="640" y="218" as="targetPoint" />
          </mxGeometry>
        </mxCell>
        <mxCell id="MFXsXubU9WuHbZtoJDCH-20" value="&lt;div style=&quot;line-height: 19px;&quot;&gt;OrigamiSwapperWithCallback&lt;/div&gt;" style="swimlane;fontStyle=0;childLayout=stackLayout;horizontal=1;startSize=30;horizontalStack=0;resizeParent=1;resizeParentMax=0;resizeLast=0;collapsible=1;marginBottom=0;whiteSpace=wrap;html=1;" parent="1" vertex="1">
          <mxGeometry x="380" y="320" width="245" height="120" as="geometry" />
        </mxCell>
        <mxCell id="MFXsXubU9WuHbZtoJDCH-21" value="setExplicitAccess()" style="text;strokeColor=#d6b656;fillColor=#fff2cc;align=left;verticalAlign=middle;spacingLeft=4;spacingRight=4;overflow=hidden;points=[[0,0.5],[1,0.5]];portConstraint=eastwest;rotatable=0;whiteSpace=wrap;html=1;" parent="MFXsXubU9WuHbZtoJDCH-20" vertex="1">
          <mxGeometry y="30" width="245" height="30" as="geometry" />
        </mxCell>
        <mxCell id="MFXsXubU9WuHbZtoJDCH-25" value="whitelistRouter()" style="text;strokeColor=#d6b656;fillColor=#fff2cc;align=left;verticalAlign=middle;spacingLeft=4;spacingRight=4;overflow=hidden;points=[[0,0.5],[1,0.5]];portConstraint=eastwest;rotatable=0;whiteSpace=wrap;html=1;" parent="MFXsXubU9WuHbZtoJDCH-20" vertex="1">
          <mxGeometry y="60" width="245" height="30" as="geometry" />
        </mxCell>
        <mxCell id="MFXsXubU9WuHbZtoJDCH-27" value="proposeNewOwner()" style="text;strokeColor=#d6b656;fillColor=#fff2cc;align=left;verticalAlign=middle;spacingLeft=4;spacingRight=4;overflow=hidden;points=[[0,0.5],[1,0.5]];portConstraint=eastwest;rotatable=0;whiteSpace=wrap;html=1;" parent="MFXsXubU9WuHbZtoJDCH-20" vertex="1">
          <mxGeometry y="90" width="245" height="30" as="geometry" />
        </mxCell>
        <mxCell id="MFXsXubU9WuHbZtoJDCH-26" style="edgeStyle=orthogonalEdgeStyle;shape=connector;curved=1;rounded=0;orthogonalLoop=1;jettySize=auto;html=1;exitX=1;exitY=0.5;exitDx=0;exitDy=0;entryX=0;entryY=0.5;entryDx=0;entryDy=0;strokeColor=default;align=center;verticalAlign=middle;fontFamily=Helvetica;fontSize=11;fontColor=default;labelBackgroundColor=default;endArrow=classic;" parent="1" source="AB6jPQtodKQVOQrO7ifA-3" target="MFXsXubU9WuHbZtoJDCH-25" edge="1">
          <mxGeometry relative="1" as="geometry" />
        </mxCell>
        <mxCell id="MFXsXubU9WuHbZtoJDCH-29" value="&lt;div style=&quot;line-height: 19px;&quot;&gt;&lt;span style=&quot;font-size: 11px; background-color: rgb(255, 255, 255);&quot;&gt;OrigamiAutoStakingToErc4626&lt;/span&gt;&lt;/div&gt;" style="swimlane;fontStyle=0;childLayout=stackLayout;horizontal=1;startSize=30;horizontalStack=0;resizeParent=1;resizeParentMax=0;resizeLast=0;collapsible=1;marginBottom=0;whiteSpace=wrap;html=1;" parent="1" vertex="1">
          <mxGeometry x="540" y="460" width="245" height="60" as="geometry" />
        </mxCell>
        <mxCell id="MFXsXubU9WuHbZtoJDCH-32" value="proposeNewOwner()" style="text;strokeColor=#d6b656;fillColor=#fff2cc;align=left;verticalAlign=middle;spacingLeft=4;spacingRight=4;overflow=hidden;points=[[0,0.5],[1,0.5]];portConstraint=eastwest;rotatable=0;whiteSpace=wrap;html=1;" parent="MFXsXubU9WuHbZtoJDCH-29" vertex="1">
          <mxGeometry y="30" width="245" height="30" as="geometry" />
        </mxCell>
        <mxCell id="MFXsXubU9WuHbZtoJDCH-33" style="edgeStyle=orthogonalEdgeStyle;shape=link;curved=1;rounded=0;orthogonalLoop=1;jettySize=auto;html=1;exitX=1;exitY=0.5;exitDx=0;exitDy=0;strokeColor=default;align=center;verticalAlign=middle;fontFamily=Helvetica;fontSize=11;fontColor=default;labelBackgroundColor=default;endArrow=classic;" parent="1" source="AB6jPQtodKQVOQrO7ifA-11" target="MFXsXubU9WuHbZtoJDCH-20" edge="1">
          <mxGeometry relative="1" as="geometry">
            <Array as="points">
              <mxPoint x="565" y="185" />
            </Array>
          </mxGeometry>
        </mxCell>
        <mxCell id="MFXsXubU9WuHbZtoJDCH-34" style="edgeStyle=orthogonalEdgeStyle;shape=connector;curved=1;rounded=0;orthogonalLoop=1;jettySize=auto;html=1;exitX=1;exitY=0.5;exitDx=0;exitDy=0;strokeColor=default;align=center;verticalAlign=middle;fontFamily=Helvetica;fontSize=11;fontColor=default;labelBackgroundColor=default;endArrow=classic;entryX=0.001;entryY=0.329;entryDx=0;entryDy=0;entryPerimeter=0;" parent="1" source="AB6jPQtodKQVOQrO7ifA-3" target="MFXsXubU9WuHbZtoJDCH-32" edge="1">
          <mxGeometry relative="1" as="geometry">
            <mxPoint x="510" y="580" as="targetPoint" />
            <Array as="points">
              <mxPoint x="260" y="255" />
              <mxPoint x="260" y="500" />
            </Array>
          </mxGeometry>
        </mxCell>
        <mxCell id="oND8uqXEmlILKtB4z8An-150" value="iBGT &amp;gt;&amp;gt;&lt;div&gt;&amp;lt;&amp;lt; oriBGT&lt;/div&gt;" style="edgeStyle=orthogonalEdgeStyle;shape=connector;curved=1;rounded=0;orthogonalLoop=1;jettySize=auto;html=1;exitX=1;exitY=0.5;exitDx=0;exitDy=0;entryX=0;entryY=0.5;entryDx=0;entryDy=0;strokeColor=#b85450;align=center;verticalAlign=middle;fontFamily=Helvetica;fontSize=11;fontColor=default;labelBackgroundColor=default;endArrow=classic;fillColor=#f8cecc;" parent="1" source="oND8uqXEmlILKtB4z8An-125" target="oND8uqXEmlILKtB4z8An-149" edge="1">
          <mxGeometry relative="1" as="geometry" />
        </mxCell>
        <mxCell id="DPMKIIs7OOmcjjplQPOW-17" value="" style="group" vertex="1" connectable="0" parent="1">
          <mxGeometry x="-130" y="940" width="310" height="390" as="geometry" />
        </mxCell>
        <mxCell id="DPMKIIs7OOmcjjplQPOW-5" value="" style="whiteSpace=wrap;html=1;imageAspect=1;" vertex="1" parent="DPMKIIs7OOmcjjplQPOW-17">
          <mxGeometry width="310" height="390" as="geometry" />
        </mxCell>
        <mxCell id="DPMKIIs7OOmcjjplQPOW-1" value="&lt;div style=&quot;line-height: 19px;&quot;&gt;externalEntryPoints()&lt;/div&gt;" style="rounded=1;whiteSpace=wrap;html=1;fontFamily=Helvetica;fontSize=11;labelBackgroundColor=default;align=left;fillColor=#f8cecc;strokeColor=#b85450;fillStyle=auto;glass=0;" vertex="1" parent="DPMKIIs7OOmcjjplQPOW-17">
          <mxGeometry x="33" y="69.5" width="150" height="31" as="geometry" />
        </mxCell>
        <mxCell id="DPMKIIs7OOmcjjplQPOW-6" value="&lt;b&gt;&lt;font style=&quot;font-size: 20px;&quot;&gt;Legend&lt;/font&gt;&lt;/b&gt;" style="text;html=1;align=left;verticalAlign=middle;whiteSpace=wrap;rounded=0;" vertex="1" parent="DPMKIIs7OOmcjjplQPOW-17">
          <mxGeometry x="15" width="150" height="40" as="geometry" />
        </mxCell>
        <mxCell id="DPMKIIs7OOmcjjplQPOW-7" value="&lt;div style=&quot;line-height: 19px;&quot;&gt;onlyAdmins()&lt;/div&gt;" style="rounded=1;whiteSpace=wrap;html=1;fontFamily=Helvetica;fontSize=11;labelBackgroundColor=default;align=left;fillColor=#f5f5f5;strokeColor=#666666;fillStyle=auto;glass=0;fontColor=#333333;" vertex="1" parent="DPMKIIs7OOmcjjplQPOW-17">
          <mxGeometry x="33" y="149.5" width="150" height="31" as="geometry" />
        </mxCell>
        <mxCell id="DPMKIIs7OOmcjjplQPOW-8" value="&lt;div style=&quot;line-height: 19px;&quot;&gt;restrictedAccess()&lt;/div&gt;" style="rounded=1;whiteSpace=wrap;html=1;fontFamily=Helvetica;fontSize=11;labelBackgroundColor=default;align=left;fillColor=#fff2cc;strokeColor=#d6b656;fillStyle=auto;glass=0;" vertex="1" parent="DPMKIIs7OOmcjjplQPOW-17">
          <mxGeometry x="33" y="109.5" width="150" height="31" as="geometry" />
        </mxCell>
        <mxCell id="DPMKIIs7OOmcjjplQPOW-9" value="&lt;div style=&quot;line-height: 19px;&quot;&gt;_internalFunctions()&lt;/div&gt;" style="rounded=1;whiteSpace=wrap;html=1;fontFamily=Helvetica;fontSize=11;labelBackgroundColor=default;align=left;fillColor=#f8cecc;strokeColor=#b85450;fillStyle=hatch;glass=0;" vertex="1" parent="DPMKIIs7OOmcjjplQPOW-17">
          <mxGeometry x="33" y="190.5" width="150" height="31" as="geometry" />
        </mxCell>
        <mxCell id="DPMKIIs7OOmcjjplQPOW-10" value="" style="group" vertex="1" connectable="0" parent="DPMKIIs7OOmcjjplQPOW-17">
          <mxGeometry x="34" y="280" width="200" height="99" as="geometry" />
        </mxCell>
        <mxCell id="DPMKIIs7OOmcjjplQPOW-11" value="" style="rounded=1;whiteSpace=wrap;html=1;fontFamily=Helvetica;fontSize=11;labelBackgroundColor=default;fillColor=#e1d5e7;strokeColor=#9673a6;" vertex="1" parent="DPMKIIs7OOmcjjplQPOW-10">
          <mxGeometry width="200" height="99" as="geometry" />
        </mxCell>
        <mxCell id="DPMKIIs7OOmcjjplQPOW-12" value="&lt;font style=&quot;font-size: 15px;&quot;&gt;&lt;b&gt;External contract&lt;/b&gt;&lt;/font&gt;" style="text;html=1;align=center;verticalAlign=middle;whiteSpace=wrap;rounded=0;fontFamily=Helvetica;fontSize=11;labelBackgroundColor=default;fillColor=#dae8fc;strokeColor=#6c8ebf;fillStyle=auto;glass=0;sketch=1;curveFitting=1;jiggle=2;" vertex="1" parent="DPMKIIs7OOmcjjplQPOW-10">
          <mxGeometry x="20" y="8.91891891891892" width="160" height="27.64864864864865" as="geometry" />
        </mxCell>
        <mxCell id="DPMKIIs7OOmcjjplQPOW-13" value="&lt;div style=&quot;line-height: 19px;&quot;&gt;deposit()&lt;/div&gt;" style="rounded=1;whiteSpace=wrap;html=1;fontFamily=Helvetica;fontSize=11;labelBackgroundColor=default;align=left;fillColor=#f8cecc;strokeColor=#b85450;fillStyle=auto;glass=0;" vertex="1" parent="DPMKIIs7OOmcjjplQPOW-10">
          <mxGeometry x="10" y="44.5945945945946" width="150" height="27.64864864864865" as="geometry" />
        </mxCell>
        <mxCell id="DPMKIIs7OOmcjjplQPOW-14" value="&lt;b&gt;Contracts&lt;/b&gt;" style="text;html=1;align=left;verticalAlign=middle;whiteSpace=wrap;rounded=0;" vertex="1" parent="DPMKIIs7OOmcjjplQPOW-17">
          <mxGeometry x="15" y="241" width="150" height="40" as="geometry" />
        </mxCell>
        <mxCell id="DPMKIIs7OOmcjjplQPOW-16" value="&lt;b&gt;Functions&lt;/b&gt;" style="text;html=1;align=left;verticalAlign=middle;whiteSpace=wrap;rounded=0;" vertex="1" parent="DPMKIIs7OOmcjjplQPOW-17">
          <mxGeometry x="15" y="30" width="150" height="40" as="geometry" />
        </mxCell>
        <mxCell id="MFXsXubU9WuHbZtoJDCH-4" value="transfers iBGT before swapCallback()" style="edgeStyle=orthogonalEdgeStyle;rounded=1;orthogonalLoop=1;jettySize=auto;html=1;exitX=0;exitY=0.75;exitDx=0;exitDy=0;entryX=0;entryY=0.5;entryDx=0;entryDy=0;curved=0;fillColor=#fff2cc;strokeColor=#d6b656;strokeWidth=2;" parent="1" source="MFXsXubU9WuHbZtoJDCH-1" target="oND8uqXEmlILKtB4z8An-113" edge="1">
          <mxGeometry x="-0.0896" relative="1" as="geometry">
            <Array as="points">
              <mxPoint x="320" y="1030" />
              <mxPoint x="320" y="1276" />
            </Array>
            <mxPoint as="offset" />
          </mxGeometry>
        </mxCell>
      </root>
    </mxGraphModel>
  </diagram>
</mxfile>
